<?xml version="1.0" encoding="utf-8"?>
<!-- Generator: Adobe Illustrator 16.0.0, SVG Export Plug-In . SVG Version: 6.00 Build 0)  -->
<!DOCTYPE svg PUBLIC "-//W3C//DTD SVG 1.1//EN" "http://www.w3.org/Graphics/SVG/1.1/DTD/svg11.dtd">
<svg version="1.1" id="Ebene_1" xmlns="http://www.w3.org/2000/svg" xmlns:xlink="http://www.w3.org/1999/xlink" x="0px" y="0px"
	 width="595px" height="842px" viewBox="0 0 595 842" enable-background="new 0 0 595 842" xml:space="preserve">
<path fill-rule="evenodd" clip-rule="evenodd" d="M228.376,619.376c-1.152,0.864-2.376,1.656-3.6,2.448
	c-1.944,1.008-3.672,1.871-5.688,2.592l-1.44,0.576v59.472l10.728,6.192l29.592,17.208l9.36,5.472l5.544,3.24l2.232,1.296
	l2.16-1.296c62.352-36.145,124.847-72.216,187.343-108.288v-71.784v-1.8l-2.808-1.584l-92.376-52.128
	c7.92-3.744,16.057-5.832,23.904-5.832c2.736,0,5.328,0.288,7.848,0.72c3.96,0.792,7.704,2.088,11.16,4.032
	c0.648,0.359,2.736,2.16,4.607,3.744c5.185,4.464,6.769,5.688,8.064,5.976l0.721,0.072l38.879-20.304v-79.92l-1.08-0.648l-62.352-36
	l-103.392-59.76l-22.752-13.176l-1.152,0.72l-15.912,9.216l-29.592,17.064l-12.888,7.488l-1.8,1.008v3.168v105.48
	c-14.832-9.432-24.12-22.248-24.192-36.072c0-2.088,0-8.496,0.648-14.184l0.144-1.44l-37.152-21.96l-65.52,38.448l-0.864,0.504
	v4.032V608l58.32,33.48l2.376,1.367l1.8-1.152l79.128-51.407l17.496-11.304C245.512,596.12,239.608,610.809,228.376,619.376
	L228.376,619.376z M277.264,711.464V496.616l20.52-11.52l103.392-58.393l59.04-33.192v73.223l-34.776,18.145
	c-1.367-0.937-3.959-3.168-5.615-4.608c-2.664-2.231-4.32-3.6-5.328-4.248c-4.104-2.231-8.568-3.815-13.32-4.607
	c-2.52-0.432-5.184-0.647-7.848-0.647c-9.504,0-19.296,2.663-28.729,7.56l-0.072-0.072l-1.079,0.576
	c-3.888,2.16-7.704,4.607-11.448,7.488c-1.872,1.439-3.672,2.88-5.473,4.464c-0.071,0.072-0.144,0.144-0.144,0.144
	c-0.144,0.145-0.288,0.288-0.432,0.36c-2.017,1.728-3.96,3.528-5.832,5.544l-2.017,2.016h0.072
	c-6.191,6.84-11.88,14.688-16.775,23.4c-14.4,25.775-19.297,54.433-13.032,76.536c3.6,12.743,10.728,22.392,20.664,27.936
	c6.696,3.744,14.256,5.616,22.392,5.616c17.064,0,34.776-8.208,49.752-22.176c8.208-7.633,15.553-16.992,21.528-27.648
	c3.096-5.76,7.056-17.352,9.72-25.056c0.288-1.008,0.648-1.872,0.864-2.664l26.928-15.552v66.528
	C399.231,640.977,338.176,676.185,277.264,711.464L277.264,711.464z M401.176,603.968c-14.76,15.048-32.688,23.976-49.752,23.976
	c-7.416,0-14.184-1.728-20.232-5.111c-8.855-4.896-15.264-13.68-18.575-25.2c-5.832-20.735-1.009-48.815,12.672-73.224
	c4.823-8.64,10.584-16.488,16.92-23.184l86.976,51.983c-0.287,0.792-0.576,1.8-0.936,2.808c-2.448,7.057-6.479,18.937-9.433,24.337
	C413.775,589.28,407.8,597.272,401.176,603.968L401.176,603.968z M345.376,497.984l19.296-14.545l92.593,52.2l-24.696,14.4
	L345.376,497.984L345.376,497.984z M401.176,421.592L297.784,479.84l-22.824,12.816l-16.992-9.36l-29.592-16.416L92.152,391.352
	l60.984-35.856l32.4,19.224c-0.504,5.544-0.504,11.304-0.504,13.248c0.144,15.552,10.008,30.024,27.72,40.753
	c0.36,0.215,0.648,0.432,0.936,0.575l1.584,0.864c0.792,0.504,1.656,0.937,2.52,1.439l0.504,0.289h0.144
	c3.24,1.655,6.552,3.168,9.936,4.464c3.168,1.224,6.336,2.304,9.576,3.312l0.288,0.071h0.144c6.264,1.801,12.888,3.169,19.584,4.033
	c5.976,0.72,12.024,1.079,18.072,1.008c7.704-0.072,14.904-0.864,21.744-2.304c36.288-7.633,59.327-32.544,59.112-55.801
	c-0.217-28.728-23.761-50.688-59.112-57.384c-6.12-1.152-12.528-1.8-19.296-2.016c-1.224-0.072-2.448-0.072-3.6-0.072
	c-5.976,0-11.736,0.504-16.92,1.152c-6.696,0.792-12.384,1.944-16.2,2.664l-0.288,0.072l-13.104-8.424l-8.712-5.616l8.712-4.968
	l29.592-17.064l17.136-9.936l22.68,13.104l103.392,59.76l55.801,32.256L401.176,421.592L401.176,421.592z M297.784,437.936
	c-6.84,1.44-14.04,2.305-21.816,2.448c-6.12,0.072-12.168-0.287-18-1.079c-5.112-0.648-10.152-1.584-14.904-2.809v-101.16
	c3.672-0.72,8.856-1.8,14.904-2.52c5.184-0.72,10.944-1.152,16.92-1.152c1.152,0,2.304,0,3.456,0c6.84,0.216,13.32,0.936,19.44,2.16
	c32.76,6.48,54.432,26.64,54.647,52.848C352.647,407.912,331.408,430.592,297.784,437.936L297.784,437.936z M257.968,702.752
	l-29.592-17.208l-6.264-3.672v-53.856c1.728-0.72,3.312-1.512,4.824-2.304l0.072-0.072c0.432-0.287,0.936-0.575,1.368-0.863
	c14.688-9.504,22.104-27.648,21.816-48.673h0.072v-1.295c-0.144-3.385-0.432-6.769-0.936-10.225v-0.072
	c-0.072-0.504-0.144-1.008-0.216-1.512c-0.072-0.288-0.072-0.576-0.144-0.792c0-0.288-0.072-0.576-0.144-0.864
	c-2.16-12.888-7.056-26.424-14.688-39.312c-1.8-3.097-3.744-6.048-5.76-8.856c-17.856-25.199-43.128-41.04-66.528-41.04
	c-8.136,0-15.552,1.944-22.176,5.832c-27.864,16.416-31.104,62.929-7.128,103.68c3.672,5.977,7.776,11.809,12.312,17.137v37.439
	L91.144,605.48V395.888l137.232,76.104l29.592,16.416l14.904,8.208v214.848L257.968,702.752L257.968,702.752z M228.376,431.672
	c-3.312-1.224-6.552-2.664-9.216-4.464l-0.576-0.36h-0.144c-0.144-0.071-0.216-0.144-0.288-0.216V321.368l10.224,6.624l10.224,6.552
	v100.584c-0.288-0.144-0.576-0.216-0.864-0.288l-0.288-0.071C234.568,433.832,231.472,432.824,228.376,431.672L228.376,431.672z
	 M228.376,585.032l-78.84,51.191v-35.855l78.84-51.049l10.656-6.911c3.96,10.296,6.192,20.88,6.696,31.319L228.376,585.032
	L228.376,585.032z M228.376,543.992l-80.136,51.984c-4.392-5.257-8.352-10.801-11.88-16.633
	c-22.752-38.592-20.232-82.367,5.544-97.56c5.904-3.456,12.6-5.185,19.944-5.185c23.184,0,49.536,17.712,66.528,44.497
	c0.648,1.079,1.296,2.159,1.944,3.168c2.736,4.607,5.04,9.287,7.056,13.896L228.376,543.992z"/>
</svg>
