<svg id="Ebene_1" data-name="Ebene 1" xmlns="http://www.w3.org/2000/svg" viewBox="0 0 854 316"><defs><style>.cls-1{fill:#009fe3;}</style></defs><title>HRW_Logo_cyan</title><path class="cls-1" d="M159.34,53.65A104.63,104.63,0,1,0,264,158.28,104.63,104.63,0,0,0,159.34,53.65Zm0,195.92a91.29,91.29,0,1,1,91.29-91.29A91.29,91.29,0,0,1,159.34,249.57Z"/><path class="cls-1" d="M126.54,185h-7.86a1,1,0,0,1-1-1.12V162.1h-19v21.78A1.15,1.15,0,0,1,97.58,185H89.8a1.15,1.15,0,0,1-1.12-1.12V132.69a1.15,1.15,0,0,1,1.12-1.12h7.78a1.15,1.15,0,0,1,1.12,1.12v20.5h18.93v-20.5a1.09,1.09,0,0,1,1-1.12h7.86a1.15,1.15,0,0,1,1.12,1.12v51.19A1.15,1.15,0,0,1,126.54,185Z"/><path class="cls-1" d="M179.76,185h-9.36c-.6,0-1-.52-1.35-1.12l-8-13.92h-11.3v13.92a1.15,1.15,0,0,1-1.12,1.12h-7.78a1.15,1.15,0,0,1-1.12-1.12V132.69a1.15,1.15,0,0,1,1.12-1.12H162c11.3,0,17.74,6.43,17.74,17.81v2.77c0,7.71-2.92,13.25-8.38,15.94l9,15.79C180.66,184.47,180.36,185,179.76,185Zm-10-35.62c0-6.44-2.55-8.9-8.91-8.9H149.75V161H160.9c6.36,0,8.83-2.47,8.83-8.91Z"/><path class="cls-1" d="M228.19,183.87A1.22,1.22,0,0,1,227,185h-8.38a1.53,1.53,0,0,1-1.42-1l-7-23.5L203,183.95a1.44,1.44,0,0,1-1.34,1h-8.38a1.35,1.35,0,0,1-1.27-1.12l-5.61-51.19a1,1,0,0,1,1-1.12h7.78a1.22,1.22,0,0,1,1.2,1.12l2.84,33.53,5.16-16.31a1.44,1.44,0,0,1,1.35-1h8.76a1.71,1.71,0,0,1,1.5,1l5.09,16.31,2.77-33.53a1.22,1.22,0,0,1,1.2-1.12h7.86a1,1,0,0,1,1,1.12Z"/><path class="cls-1" d="M304.52,150.62h-2.79a.36.36,0,0,1-.35-.4v-7.73h-6.75v7.73a.41.41,0,0,1-.4.4h-2.76a.41.41,0,0,1-.4-.4V132.05a.41.41,0,0,1,.4-.4h2.76a.41.41,0,0,1,.4.4v7.28h6.72v-7.28a.39.39,0,0,1,.37-.4h2.79a.41.41,0,0,1,.4.4v18.17A.41.41,0,0,1,304.52,150.62Z"/><path class="cls-1" d="M317.41,150.84h-1.59c-4,0-6.32-2.31-6.32-6.33v-6.75c0-4,2.31-6.3,6.32-6.3h1.59c4,0,6.32,2.29,6.32,6.3v6.75C323.73,148.52,321.42,150.84,317.41,150.84Zm2.76-13.07c0-2.26-.88-3.16-3.16-3.16h-.8c-2.28,0-3.16.9-3.16,3.16v6.75c0,2.29.88,3.16,3.16,3.16h.8c2.28,0,3.16-.87,3.16-3.16Z"/><path class="cls-1" d="M335.54,150.84h-1.59c-4,0-6.29-2.31-6.29-6.33v-6.75c0-4,2.28-6.3,6.29-6.3h1.59c3.69,0,5.92,1.94,6.3,5.34a.41.41,0,0,1-.4.4h-2.79a.41.41,0,0,1-.4-.4c-.27-1.54-1.19-2.2-3.11-2.2h-.8c-2.26,0-3.16.9-3.16,3.16v6.75c0,2.29.9,3.16,3.16,3.16h.8c1.91,0,2.84-.66,3.08-2.2.05-.21.19-.4.4-.4h2.79a.41.41,0,0,1,.42.4C341.46,148.87,339.23,150.84,335.54,150.84Z"/><path class="cls-1" d="M359.35,150.62h-2.79a.36.36,0,0,1-.34-.4v-7.73h-6.75v7.73a.41.41,0,0,1-.4.4h-2.76a.41.41,0,0,1-.4-.4V132.05a.41.41,0,0,1,.4-.4h2.76a.41.41,0,0,1,.4.4v7.28h6.72v-7.28a.39.39,0,0,1,.37-.4h2.79a.41.41,0,0,1,.4.4v18.17A.41.41,0,0,1,359.35,150.62Z"/><path class="cls-1" d="M376.26,149.53a6.91,6.91,0,0,1-4.54,1.3h-1.59c-3.75,0-6-1.83-6.27-5.37a.39.39,0,0,1,.4-.4H367a.36.36,0,0,1,.35.4c.21,1.7,1.14,2.2,3.14,2.2h.8c2.92,0,3.16-1.09,3.16-2.39v-.16c0-1.06,0-1.88-4.22-2.6a9.28,9.28,0,0,1-4-1.52,4.61,4.61,0,0,1-2.21-4v-.21c0-2.58,1.7-5.34,6.51-5.34h.8c3.53,0,5.74,1.78,6.22,4.94a.37.37,0,0,1-.37.4h-2.82c-.21,0-.35-.19-.4-.4-.35-1.28-1.28-1.81-3-1.81a4.54,4.54,0,0,0-2.68.66,1.8,1.8,0,0,0-.66,1.54V137c0,.48,0,1.73,4,2.39,3.75.64,6.46,1.52,6.46,5.71v.19A5.21,5.21,0,0,1,376.26,149.53Z"/><path class="cls-1" d="M389.84,150.84h-1.59c-4,0-6.3-2.31-6.3-6.33v-6.75c0-4,2.28-6.3,6.3-6.3h1.59c3.69,0,5.93,1.94,6.3,5.34a.41.41,0,0,1-.4.4h-2.79a.41.41,0,0,1-.4-.4c-.26-1.54-1.2-2.2-3.11-2.2h-.8c-2.26,0-3.16.9-3.16,3.16v6.75c0,2.29.9,3.16,3.16,3.16h.8c1.91,0,2.84-.66,3.08-2.2.05-.21.19-.4.4-.4h2.79a.41.41,0,0,1,.42.4C395.76,148.87,393.53,150.84,389.84,150.84Z"/><path class="cls-1" d="M413.65,150.62h-2.79a.36.36,0,0,1-.34-.4v-7.73h-6.75v7.73a.41.41,0,0,1-.4.4h-2.76a.41.41,0,0,1-.4-.4V132.05a.41.41,0,0,1,.4-.4h2.76a.41.41,0,0,1,.4.4v7.28h6.72v-7.28a.39.39,0,0,1,.37-.4h2.79a.41.41,0,0,1,.4.4v18.17A.41.41,0,0,1,413.65,150.62Z"/><path class="cls-1" d="M426.36,150.84h-1.2c-4,0-6.32-2.31-6.32-6.33V132.05a.41.41,0,0,1,.4-.4H422a.41.41,0,0,1,.4.4v12.46c0,2.29.88,3.16,3.16,3.16h.4c2.26,0,3.14-.87,3.14-3.16V132.05a.41.41,0,0,1,.4-.4h2.76a.41.41,0,0,1,.4.4v12.46C432.66,148.52,430.37,150.84,426.36,150.84Z"/><path class="cls-1" d="M448.53,150.62H438.27a.41.41,0,0,1-.4-.4V132.05a.41.41,0,0,1,.4-.4H441a.41.41,0,0,1,.4.4v15.41h7.09a.41.41,0,0,1,.4.4v2.36A.41.41,0,0,1,448.53,150.62Z"/><path class="cls-1" d="M465,150.62H453.13a.41.41,0,0,1-.43-.4V132.05a.41.41,0,0,1,.4-.4H465a.41.41,0,0,1,.4.4v2.36a.41.41,0,0,1-.4.4h-8.72v4.52h7.12a.41.41,0,0,1,.4.4v2.36a.41.41,0,0,1-.4.4h-7.12v5H465a.41.41,0,0,1,.4.4v2.36A.41.41,0,0,1,465,150.62Z"/><path class="cls-1" d="M502.19,150.59h-3.31a.6.6,0,0,1-.48-.4l-2.84-4.93h-4v4.93a.41.41,0,0,1-.4.4h-2.76a.41.41,0,0,1-.4-.4V132.06a.41.41,0,0,1,.4-.4h7.5c4,0,6.29,2.28,6.29,6.31v1c0,2.73-1,4.69-3,5.65l3.18,5.6C502.51,150.41,502.41,150.59,502.19,150.59ZM498.67,138c0-2.28-.9-3.16-3.16-3.16h-3.95v7.29h3.95c2.25,0,3.13-.87,3.13-3.15Z"/><path class="cls-1" d="M513.56,150.8h-1.19c-4,0-6.31-2.31-6.31-6.31V132.06a.41.41,0,0,1,.4-.4h2.75a.41.41,0,0,1,.4.4v12.43c0,2.28.88,3.16,3.16,3.16h.4c2.25,0,3.13-.87,3.13-3.16V132.06a.41.41,0,0,1,.4-.4h2.76a.41.41,0,0,1,.4.4v12.43C519.84,148.5,517.56,150.8,513.56,150.8Z"/><path class="cls-1" d="M538,150.59h-2.78a.36.36,0,0,1-.35-.4v-7.72h-6.73v7.72a.41.41,0,0,1-.4.4H525a.41.41,0,0,1-.4-.4V132.06a.41.41,0,0,1,.4-.4h2.76a.41.41,0,0,1,.4.4v7.27h6.71v-7.27a.39.39,0,0,1,.37-.4H538a.41.41,0,0,1,.4.4v18.14A.41.41,0,0,1,538,150.59Z"/><path class="cls-1" d="M557.39,150.59h-3.31c-.21,0-.37-.19-.48-.4l-2.84-4.93h-4v4.93a.41.41,0,0,1-.4.4h-2.76a.41.41,0,0,1-.4-.4V132.06a.41.41,0,0,1,.4-.4h7.5c4,0,6.28,2.28,6.28,6.31v1c0,2.73-1,4.69-3,5.65l3.18,5.6C557.71,150.41,557.6,150.59,557.39,150.59ZM553.87,138c0-2.28-.9-3.16-3.15-3.16h-4v7.29h4c2.25,0,3.13-.87,3.13-3.15Z"/><path class="cls-1" d="M592.58,150.19a.43.43,0,0,1-.42.4h-3a.54.54,0,0,1-.5-.37l-2.49-8.33-2.52,8.33a.52.52,0,0,1-.48.37h-3a.48.48,0,0,1-.45-.4l-2-18.14a.35.35,0,0,1,.34-.4h2.76a.44.44,0,0,1,.43.4l1,11.88,1.83-5.78a.51.51,0,0,1,.47-.37h3.1a.61.61,0,0,1,.53.37l1.8,5.78,1-11.88a.43.43,0,0,1,.42-.4h2.79a.36.36,0,0,1,.34.4Z"/><path class="cls-1" d="M611.48,150.59H599.65a.41.41,0,0,1-.42-.4V132.06a.41.41,0,0,1,.4-.4h11.85a.41.41,0,0,1,.4.4v2.36a.41.41,0,0,1-.4.4h-8.69v4.51h7.1a.41.41,0,0,1,.4.4v2.36a.41.41,0,0,1-.4.4h-7.1v5h8.69a.41.41,0,0,1,.4.4v2.36A.41.41,0,0,1,611.48,150.59Z"/><path class="cls-1" d="M628.15,149.5a6.89,6.89,0,0,1-4.53,1.3H622c-3.74,0-6-1.83-6.25-5.36a.39.39,0,0,1,.4-.4h2.78a.36.36,0,0,1,.34.4c.22,1.7,1.14,2.2,3.13,2.2h.8c2.91,0,3.15-1.09,3.15-2.39v-.16c0-1.06,0-1.88-4.22-2.6a9.25,9.25,0,0,1-4-1.51,4.6,4.6,0,0,1-2.2-4v-.21c0-2.57,1.7-5.33,6.5-5.33h.8c3.52,0,5.73,1.78,6.2,4.93a.37.37,0,0,1-.37.4h-2.81c-.21,0-.34-.19-.4-.4-.34-1.27-1.27-1.8-3-1.8a4.52,4.52,0,0,0-2.68.66,1.79,1.79,0,0,0-.66,1.54V137c0,.48,0,1.73,4,2.39,3.74.63,6.44,1.51,6.44,5.7v.19A5.19,5.19,0,0,1,628.15,149.5Z"/><path class="cls-1" d="M647.41,134.82h-5.3v15.38a.41.41,0,0,1-.4.4H639a.41.41,0,0,1-.39-.4V134.82h-5.33a.41.41,0,0,1-.42-.4v-2.36a.41.41,0,0,1,.4-.4h14.19a.41.41,0,0,1,.42.4v2.36A.41.41,0,0,1,647.41,134.82Z"/><path class="cls-1" d="M297.78,185.12h-1.2c-3.59,0-5.53-1.94-5.53-5.53V166.33a.41.41,0,0,1,.4-.4h1a.4.4,0,0,1,.35.4v13.26c0,2.71,1.25,3.93,4,3.93h.8c2.73,0,4-1.2,4-3.93V166.33a.41.41,0,0,1,.4-.4h1a.43.43,0,0,1,.4.4v13.26C303.28,183.18,301.39,185.12,297.78,185.12Z"/><path class="cls-1" d="M321.22,184.91h-1.3a.76.76,0,0,1-.58-.4l-8.61-15.41v15.41a.37.37,0,0,1-.37.4h-1a.37.37,0,0,1-.4-.4V166.33a.41.41,0,0,1,.4-.4h1.25a.8.8,0,0,1,.61.4l8.58,15.46V166.33a.43.43,0,0,1,.4-.4h1a.43.43,0,0,1,.37.4v18.18A.37.37,0,0,1,321.22,184.91Z"/><path class="cls-1" d="M335.41,184.91h-7.28a.37.37,0,0,1-.4-.4v-.8a.41.41,0,0,1,.4-.4h2.76V167.53h-2.36a.38.38,0,0,1-.4-.39v-.8a.41.41,0,0,1,.4-.4H335a.45.45,0,0,1,.42.4v.8a.41.41,0,0,1-.4.39h-2.37v15.79h2.74a.43.43,0,0,1,.42.4v.8A.41.41,0,0,1,335.41,184.91Z"/><path class="cls-1" d="M348.89,184.51c-.08.24-.16.4-.37.4H347c-.24,0-.35-.21-.4-.4l-6.46-18.18c-.08-.19,0-.4.19-.4h1.33c.24,0,.35.21.4.4l5.69,16.52,5.66-16.52c.05-.19.16-.4.4-.4h1.33c.21,0,.27.21.19.4Z"/><path class="cls-1" d="M371.75,184.91H360.67a.39.39,0,0,1-.4-.4V166.33a.41.41,0,0,1,.4-.4h11.05a.46.46,0,0,1,.42.4v.8a.41.41,0,0,1-.4.39H362v6.91h8.1a.4.4,0,0,1,.42.4v.8a.41.41,0,0,1-.4.4H362v7.28h9.7a.43.43,0,0,1,.42.4v.8A.41.41,0,0,1,371.75,184.91Z"/><path class="cls-1" d="M390.25,184.91h-1.33c-.24,0-.37-.16-.5-.4l-3.27-5.74a3.53,3.53,0,0,1-.53,0h-5.13v5.71a.38.38,0,0,1-.37.4h-1a.39.39,0,0,1-.4-.4V166.33a.41.41,0,0,1,.4-.4h6.72c3.61,0,5.5,1.94,5.5,5.55v1.75c0,2.82-1.12,4.6-3.32,5.26l3.43,6C390.54,184.75,390.43,184.91,390.25,184.91Zm-1.67-13.42c0-2.71-1.22-4-4-4h-5.15v9.67h5.15c2.74,0,4-1.2,4-4Z"/><path class="cls-1" d="M402.85,185.12h-1.59c-3.48,0-5.4-1.78-5.5-5.15a.36.36,0,0,1,.4-.37h1a.4.4,0,0,1,.4.37c.11,2.44,1.33,3.56,3.93,3.56h1.19c3.45,0,4-1.52,4-3.17v-.77c0-2-.72-2.9-4.89-3.59-4.94-.82-5.79-3.11-5.79-4.91v-.8c0-2.82,2.12-4.55,5.71-4.55h.8c3.27,0,5.15,1.6,5.5,4.55a.41.41,0,0,1-.4.4h-1a.39.39,0,0,1-.4-.4c-.29-2-1.51-2.95-3.88-2.95h-.4c-1.57,0-4.17.4-4.17,2.95v.8q0,2.59,4.7,3.34c3.91.67,6,1.73,6,5.16v.77C408.37,183.5,406.52,185.12,402.85,185.12Z"/><path class="cls-1" d="M421.13,184.91h-7.28a.37.37,0,0,1-.4-.4v-.8a.41.41,0,0,1,.4-.4h2.76V167.53h-2.37a.38.38,0,0,1-.4-.39v-.8a.41.41,0,0,1,.4-.4h6.46a.46.46,0,0,1,.43.4v.8a.41.41,0,0,1-.4.39h-2.37v15.79h2.74a.43.43,0,0,1,.42.4v.8A.41.41,0,0,1,421.13,184.91Z"/><path class="cls-1" d="M438.23,167.53h-5.82v17a.41.41,0,0,1-.4.4h-1a.39.39,0,0,1-.4-.4v-17h-5.82a.37.37,0,0,1-.4-.39v-.8a.41.41,0,0,1,.4-.4H438.2a.43.43,0,0,1,.43.4v.8A.39.39,0,0,1,438.23,167.53Z"/><path class="cls-1" d="M449.45,176.27v8.24a.37.37,0,0,1-.4.4h-1a.41.41,0,0,1-.4-.4v-8.24L442,166.33c-.13-.21-.05-.4.18-.4h1.33c.19,0,.37.19.51.4l4.57,8.32,4.62-8.32c.11-.19.27-.4.5-.4H455c.24,0,.32.19.21.4Z"/><path class="cls-1" d="M485.57,185.12H484c-3.58,0-5.5-1.94-5.5-5.53V171.3c0-3.64,1.91-5.56,5.5-5.56h1.59c3.62,0,5.53,1.91,5.53,5.53v8.32C491.1,183.18,489.21,185.12,485.57,185.12Zm3.77-13.81c0-2.74-1.25-4-4-4h-1.19c-2.74,0-4,1.22-4,3.93v8.32c0,2.71,1.22,3.93,4,3.93h1.19c2.71,0,3.93-1.2,3.93-3.93Z"/><path class="cls-1" d="M509.25,167.53h-9.7v6.91h8.1a.38.38,0,0,1,.4.4v.8a.39.39,0,0,1-.4.4h-8.1v8.48a.36.36,0,0,1-.35.4h-1a.38.38,0,0,1-.4-.4V166.33a.41.41,0,0,1,.4-.4h11.05a.43.43,0,0,1,.4.4v.8A.39.39,0,0,1,509.25,167.53Z"/><path class="cls-1" d="M546.78,184.91h-1.27c-.24,0-.32-.16-.4-.4l-2-5.53h-8l-2,5.53c-.08.24-.19.4-.4.4h-1.3c-.21,0-.26-.16-.18-.4l6.8-18.18c.08-.19.16-.4.4-.4h1.38c.21,0,.32.21.4.4L547,184.51C547.07,184.75,547,184.91,546.78,184.91Zm-7.71-17-3.45,9.46h6.88Z"/><path class="cls-1" d="M558.35,178.8h-5.29v5.71a.39.39,0,0,1-.4.4h-1a.37.37,0,0,1-.4-.4V166.33a.39.39,0,0,1,.4-.4h6.65c3.61,0,5.55,1.89,5.55,5.53v1.78C563.9,176.85,562,178.8,558.35,178.8Zm3.8-7.34c0-2.73-1.19-3.93-4-3.93h-5.13v9.67h5.13c2.73,0,3.93-1.22,3.93-4Z"/><path class="cls-1" d="M575.91,178.8h-5.29v5.71a.39.39,0,0,1-.4.4h-1a.37.37,0,0,1-.4-.4V166.33a.39.39,0,0,1,.4-.4h6.64c3.61,0,5.55,1.89,5.55,5.53v1.78C581.47,176.85,579.53,178.8,575.91,178.8Zm3.8-7.34c0-2.73-1.2-3.93-4-3.93h-5.13v9.67h5.13c2.74,0,3.93-1.22,3.93-4Z"/><path class="cls-1" d="M596.3,184.91h-9.06a.37.37,0,0,1-.4-.4V166.33a.41.41,0,0,1,.4-.4h1a.4.4,0,0,1,.37.4v17h7.7a.39.39,0,0,1,.4.4v.8A.37.37,0,0,1,596.3,184.91Z"/><path class="cls-1" d="M608.21,184.91h-7.28a.37.37,0,0,1-.4-.4v-.8a.41.41,0,0,1,.4-.4h2.76V167.53h-2.36a.37.37,0,0,1-.4-.39v-.8a.41.41,0,0,1,.4-.4h6.46a.46.46,0,0,1,.43.4v.8a.41.41,0,0,1-.4.39h-2.37v15.79h2.74a.44.44,0,0,1,.42.4v.8A.41.41,0,0,1,608.21,184.91Z"/><path class="cls-1" d="M624.84,184.91H613.77a.39.39,0,0,1-.4-.4V166.33a.41.41,0,0,1,.4-.4h11.05a.45.45,0,0,1,.42.4v.8a.41.41,0,0,1-.4.39h-9.72v6.91h8.1a.4.4,0,0,1,.43.4v.8a.41.41,0,0,1-.4.4h-8.13v7.28h9.7a.43.43,0,0,1,.42.4v.8A.4.4,0,0,1,624.84,184.91Z"/><path class="cls-1" d="M637.82,184.91h-6.7a.4.4,0,0,1-.43-.4V166.33a.43.43,0,0,1,.4-.4h6.72c3.62,0,5.53,1.94,5.53,5.55v7.86C643.35,183,641.43,184.91,637.82,184.91Zm3.75-13.42c0-2.76-1.22-4-3.93-4h-5.16v15.79h5.13c2.73,0,4-1.2,4-4Z"/><path class="cls-1" d="M674,185.12h-1.59c-3.48,0-5.39-1.78-5.5-5.15,0-.21.16-.37.4-.37h1a.4.4,0,0,1,.4.37c.11,2.44,1.33,3.56,3.93,3.56h1.2c3.45,0,4-1.52,4-3.17v-.77c0-2-.72-2.9-4.88-3.59-4.94-.82-5.79-3.11-5.79-4.91v-.8c0-2.82,2.13-4.55,5.71-4.55h.8c3.27,0,5.16,1.6,5.5,4.55a.41.41,0,0,1-.4.4h-1a.39.39,0,0,1-.4-.4c-.3-2-1.52-2.95-3.88-2.95h-.4c-1.57,0-4.17.4-4.17,2.95v.8q0,2.59,4.7,3.34c3.91.67,6,1.73,6,5.16v.77C679.57,183.5,677.71,185.12,674,185.12Z"/><path class="cls-1" d="M692.92,185.12h-1.59c-3.59,0-5.5-1.94-5.5-5.53V171.3c0-3.64,1.91-5.56,5.5-5.56h1.59c3.43,0,5.34,1.73,5.53,4.95a.41.41,0,0,1-.4.4h-1a.41.41,0,0,1-.4-.4c-.19-2.29-1.38-3.35-3.91-3.35h-1.19c-2.74,0-4,1.22-4,3.93v8.32c0,2.71,1.22,3.93,4,3.93h1.19c2.53,0,3.72-1,3.91-3.33,0-.24.16-.42.4-.42h1a.43.43,0,0,1,.4.4C698.23,183.42,696.35,185.12,692.92,185.12Z"/><path class="cls-1" d="M710.67,184.91h-7.28a.37.37,0,0,1-.39-.4v-.8a.41.41,0,0,1,.39-.4h2.77V167.53h-2.37a.38.38,0,0,1-.4-.39v-.8a.41.41,0,0,1,.4-.4h6.46a.46.46,0,0,1,.43.4v.8a.41.41,0,0,1-.4.39h-2.36v15.79h2.74a.44.44,0,0,1,.42.4v.8A.41.41,0,0,1,710.67,184.91Z"/><path class="cls-1" d="M728.9,184.91H717.82a.39.39,0,0,1-.4-.4V166.33a.41.41,0,0,1,.4-.4h11.05a.45.45,0,0,1,.42.4v.8a.4.4,0,0,1-.4.39h-9.73v6.91h8.11a.4.4,0,0,1,.43.4v.8a.41.41,0,0,1-.4.4h-8.13v7.28h9.7a.43.43,0,0,1,.42.4v.8A.4.4,0,0,1,728.9,184.91Z"/><path class="cls-1" d="M747.06,184.91h-1.3a.77.77,0,0,1-.59-.4l-8.61-15.41v15.41a.37.37,0,0,1-.37.4h-1a.37.37,0,0,1-.4-.4V166.33a.41.41,0,0,1,.4-.4h1.25a.8.8,0,0,1,.61.4l8.58,15.46V166.33a.43.43,0,0,1,.4-.4h1a.43.43,0,0,1,.38.4v18.18A.37.37,0,0,1,747.06,184.91Z"/><path class="cls-1" d="M760,185.12h-1.59c-3.59,0-5.5-1.94-5.5-5.53V171.3c0-3.64,1.91-5.56,5.5-5.56H760c3.43,0,5.35,1.73,5.53,4.95a.41.41,0,0,1-.4.4h-1a.41.41,0,0,1-.4-.4c-.19-2.29-1.38-3.35-3.91-3.35h-1.19c-2.74,0-4,1.22-4,3.93v8.32c0,2.71,1.22,3.93,4,3.93h1.19c2.53,0,3.72-1,3.91-3.33,0-.24.15-.42.4-.42h1a.43.43,0,0,1,.4.4C765.32,183.42,763.43,185.12,760,185.12Z"/><path class="cls-1" d="M783.2,184.91H772.13a.39.39,0,0,1-.4-.4V166.33a.41.41,0,0,1,.4-.4h11.05a.46.46,0,0,1,.43.4v.8a.41.41,0,0,1-.4.39h-9.72v6.91h8.1a.4.4,0,0,1,.42.4v.8a.41.41,0,0,1-.39.4h-8.13v7.28h9.7a.43.43,0,0,1,.43.4v.8A.41.41,0,0,1,783.2,184.91Z"/><path class="cls-1" d="M795.67,185.12h-1.6c-3.48,0-5.39-1.78-5.5-5.15,0-.21.16-.37.4-.37h1a.41.41,0,0,1,.4.37c.11,2.44,1.33,3.56,3.93,3.56h1.2c3.45,0,4-1.52,4-3.17v-.77c0-2-.72-2.9-4.89-3.59-4.94-.82-5.79-3.11-5.79-4.91v-.8c0-2.82,2.12-4.55,5.71-4.55h.79c3.27,0,5.16,1.6,5.5,4.55a.41.41,0,0,1-.4.4h-1a.39.39,0,0,1-.4-.4c-.29-2-1.52-2.95-3.88-2.95h-.4c-1.57,0-4.17.4-4.17,2.95v.8q0,2.59,4.7,3.34c3.91.67,6,1.73,6,5.16v.77C801.2,183.5,799.34,185.12,795.67,185.12Z"/></svg>